<svg width="198" height="60" viewBox="0 0 198 60" fill="none" xmlns="http://www.w3.org/2000/svg">
<g clip-path="url(#clip0_10_816)">
<path d="M87.8235 56.4243C109.288 56.0621 133.203 54.6596 156.703 50.4906C164 49.1959 171.213 47.6547 177.931 45.1194C180.959 43.9789 183.925 42.6457 186.57 41.0737C188.503 39.9255 190.177 38.3842 191.417 36.7813C194.373 32.9437 193.546 28.975 189.03 26.1083C186.374 24.4284 183.315 23.0105 180.184 21.8546C171.058 18.4947 161.406 16.2137 151.536 14.4181C143.361 12.9308 135.032 12.3452 126.671 11.9522C125.689 11.9059 124.615 11.9522 123.757 11.6593C123.075 11.4281 122.155 10.7115 122.238 10.2953C122.341 9.70968 123.137 9.02383 123.881 8.72329C124.573 8.43817 125.596 8.56917 126.475 8.56147C140.075 8.46129 153.21 10.488 165.994 13.7631C172.226 15.3583 178.344 17.2771 184.297 19.3886C187.428 20.4983 190.373 22.1012 192.916 23.8736C198.29 27.611 199.375 32.674 196.336 37.6521C194.755 40.2491 192.337 42.3529 189.371 44.133C184.142 47.2694 178.127 49.273 171.864 50.9298C159.762 54.1279 147.237 55.9465 134.567 57.2874C119.499 58.8825 104.338 59.7688 89.1153 59.9537C70.8852 60.1695 52.7583 59.4759 34.9312 56.3395C27.821 55.0911 20.9899 53.2648 14.6754 50.4829C10.5623 48.6719 6.80051 46.545 3.9275 43.6475C-0.723059 38.9622 -1.18811 33.984 2.2533 28.7978C4.18586 25.8849 7.0382 23.4883 10.2419 21.3151C18.6853 15.5818 28.6374 11.7287 39.1684 8.67706C52.903 4.70069 67.2267 2.49673 81.8191 1.17898C100.514 -0.500954 119.23 -0.300595 137.915 1.24063C154.047 2.5738 169.952 4.77775 185.206 9.07007C187.159 9.61721 189.051 10.3031 190.942 10.9658C192.265 11.4281 193.122 12.1448 192.554 13.3162C192.13 14.1869 190.849 14.449 189.144 13.8787C179.532 10.6344 169.301 8.99301 159.06 7.39013C147.061 5.50983 134.928 4.52345 122.703 3.94549C100.99 2.92828 79.5455 4.19979 58.3907 8.00662C46.9916 10.0565 36.037 13.0233 25.8264 17.3773C20.5455 19.6275 15.5746 22.2167 11.3994 25.5535C9.82853 26.8096 8.36103 28.1736 7.18289 29.6378C3.50378 34.2075 4.04118 38.7002 9.0121 42.4993C11.5234 44.4104 14.4894 46.0827 17.5485 47.4852C24.3796 50.6216 32.0272 52.263 39.8298 53.4574C54.7942 55.7462 69.9551 56.4474 87.8132 56.4243H87.8235Z" fill="#FFB800"/>
</g>
<defs>
<clipPath id="clip0_10_816">
<rect width="198" height="60" fill="white"/>
</clipPath>
</defs>
</svg>
