<svg width="537" height="258" viewBox="0 0 537 258" fill="none" xmlns="http://www.w3.org/2000/svg">
<path d="M348 154.584C314.539 154.584 287.416 127.461 287.416 94L234 94C234 156.964 285.036 208 348 208L348 154.584Z" fill="#F23342"/>
<path d="M-1.4112e-05 152.947C33.4613 152.947 60.5841 179.832 60.5841 213L114 213C114 150.588 62.9645 100 -2.25612e-07 100L-1.4112e-05 152.947Z" fill="#F23342"/>
<path d="M362.984 55.6754L301.559 25.5161L271.4 86.9413L332.825 117.101L362.984 55.6754Z" fill="#F23342"/>
<path d="M318.877 72.3879C318.537 73.0814 317.702 73.3624 317.013 73.0243C316.325 72.6861 316.039 71.8487 316.377 71.1601C316.715 70.4715 317.552 70.1856 318.241 70.5237C318.93 70.8618 319.215 71.6992 318.877 72.3879Z" fill="#0B1347"/>
<path d="M334.706 80.1596C334.367 80.8501 334.652 81.6847 335.343 82.0238C336.033 82.3628 336.868 82.0779 337.207 81.3874C337.546 80.6969 337.261 79.8622 336.57 79.5232C335.88 79.1842 335.045 79.4691 334.706 80.1596Z" fill="#0B1347"/>
<path d="M297.354 61.82C297.015 62.5105 297.3 63.3451 297.99 63.6842C298.681 64.0232 299.515 63.7383 299.854 63.0478C300.193 62.3573 299.908 61.5226 299.218 61.1836C298.527 60.8446 297.693 61.1295 297.354 61.82Z" fill="#0B1347"/>
<path d="M310.528 89.3936C310.187 90.0871 309.352 90.3681 308.664 90.03C307.975 89.6919 307.689 88.8545 308.027 88.1658C308.365 87.4772 309.203 87.1913 309.891 87.5294C310.58 87.8675 310.866 88.705 310.528 89.3936Z" fill="#0B1347"/>
<path d="M328.857 98.3932C328.516 99.0868 327.681 99.3678 326.993 99.0296C326.304 98.6915 326.018 97.8541 326.356 97.1655C326.694 96.4768 327.532 96.1909 328.22 96.5291C328.909 96.8672 329.195 97.7046 328.857 98.3932Z" fill="#0B1347"/>
<path d="M291.509 80.056C291.169 80.7495 290.334 81.0305 289.645 80.6924C288.957 80.3543 288.671 79.5168 289.009 78.8282C289.347 78.1396 290.184 77.8537 290.873 78.1918C291.562 78.5299 291.848 79.3673 291.509 80.056Z" fill="#0B1347"/>
<path d="M327.266 55.3039C326.925 55.9974 326.09 56.2784 325.401 55.9403C324.713 55.6022 324.427 54.7647 324.765 54.0761C325.103 53.3875 325.94 53.1016 326.629 53.4397C327.318 53.7778 327.604 54.6152 327.266 55.3039Z" fill="#0B1347"/>
<path d="M343.094 63.0757C342.755 63.7663 343.04 64.6009 343.731 64.9399C344.421 65.2789 345.256 64.994 345.595 64.3035C345.934 63.613 345.649 62.7784 344.958 62.4393C344.268 62.1003 343.433 62.3852 343.094 63.0757Z" fill="#0B1347"/>
<path d="M305.742 44.736C305.403 45.4265 305.688 46.2612 306.378 46.6002C307.069 46.9392 307.904 46.6543 308.243 45.9638C308.582 45.2733 308.297 44.4387 307.606 44.0996C306.916 43.7606 306.081 44.0455 305.742 44.736Z" fill="#0B1347"/>
<path d="M71.9093 114.386L151.538 135.371L172.819 54.6201L71.9093 114.386Z" fill="#3B2675"/>
<path d="M460.451 187.312L404.78 131.64L349.108 187.312L404.78 242.984L460.451 187.312Z" fill="#6F16E0"/>
<path d="M364 87.5C364 110.706 373.113 132.962 389.335 149.372C405.557 165.781 427.559 175 450.5 175C473.441 175 495.443 165.781 511.665 149.372C527.887 132.962 537 110.706 537 87.5L450.5 87.5L364 87.5Z" fill="#FFB800"/>
<path d="M122.869 258L6.99997 258L122.869 145L237 145L122.869 258Z" fill="#DDFE2C"/>
</svg>
