<svg width="390" height="210" viewBox="0 0 390 210" fill="none" xmlns="http://www.w3.org/2000/svg">
<path d="M295 164.081C266.235 164.081 242.919 140.765 242.919 112H197C197 166.127 240.873 210 295 210V164.081Z" fill="#F23342"/>
<path d="M-5 162.919C23.765 162.919 47.0811 186.235 47.0811 215L93 215C93 160.873 49.1274 117 -4.99999 117L-5 162.919Z" fill="#F23342"/>
<path d="M307.964 79.0033L255.003 53L229 105.961L281.961 131.964L307.964 79.0033Z" fill="#F23342"/>
<path d="M269.935 93.4124C269.642 94.0104 268.922 94.2526 268.328 93.9611C267.734 93.6696 267.488 92.9476 267.779 92.3538C268.071 91.7601 268.793 91.5136 269.386 91.8051C269.98 92.0966 270.227 92.8187 269.935 93.4124Z" fill="#0B1347"/>
<path d="M283.583 100.113C283.29 100.709 283.536 101.428 284.132 101.721C284.727 102.013 285.446 101.767 285.739 101.172C286.031 100.576 285.785 99.8569 285.19 99.5646C284.595 99.2722 283.875 99.5179 283.583 100.113Z" fill="#0B1347"/>
<path d="M251.378 84.3008C251.085 84.8962 251.331 85.6158 251.926 85.9081C252.522 86.2004 253.241 85.9548 253.534 85.3594C253.826 84.764 253.58 84.0444 252.985 83.7521C252.39 83.4598 251.67 83.7055 251.378 84.3008Z" fill="#0B1347"/>
<path d="M262.736 108.075C262.442 108.673 261.723 108.915 261.129 108.624C260.535 108.332 260.289 107.61 260.58 107.016C260.872 106.422 261.594 106.176 262.187 106.468C262.781 106.759 263.028 107.481 262.736 108.075Z" fill="#0B1347"/>
<path d="M278.54 115.834C278.246 116.432 277.526 116.674 276.932 116.383C276.339 116.091 276.092 115.369 276.384 114.776C276.675 114.182 277.397 113.935 277.991 114.227C278.585 114.518 278.831 115.24 278.54 115.834Z" fill="#0B1347"/>
<path d="M246.339 100.024C246.045 100.622 245.325 100.864 244.731 100.573C244.138 100.281 243.891 99.559 244.183 98.9653C244.474 98.3716 245.196 98.1251 245.79 98.4166C246.384 98.7081 246.63 99.4301 246.339 100.024Z" fill="#0B1347"/>
<path d="M277.167 78.6826C276.874 79.2806 276.154 79.5229 275.56 79.2313C274.966 78.9398 274.72 78.2178 275.011 77.6241C275.303 77.0303 276.025 76.7838 276.619 77.0754C277.212 77.3669 277.459 78.0889 277.167 78.6826Z" fill="#0B1347"/>
<path d="M290.815 85.3835C290.523 85.9789 290.768 86.6985 291.364 86.9908C291.959 87.2831 292.679 87.0374 292.971 86.4421C293.263 85.8467 293.018 85.1271 292.422 84.8348C291.827 84.5425 291.107 84.7881 290.815 85.3835Z" fill="#0B1347"/>
<path d="M258.61 69.5711C258.318 70.1664 258.563 70.886 259.159 71.1783C259.754 71.4707 260.474 71.225 260.766 70.6296C261.058 70.0343 260.813 69.3147 260.217 69.0223C259.622 68.73 258.902 68.9757 258.61 69.5711Z" fill="#0B1347"/>
<path d="M100 149.5L196 149.5L196 51.5L100 149.5Z" fill="#3B2675"/>
<path d="M392 247.5L392 149.5L294 149.5L294 247.5L392 247.5Z" fill="#05C4CE"/>
<path d="M328 201C328 209.007 334.493 215.5 342.5 215.5C350.507 215.5 357 209.007 357 201C357 192.993 350.507 186.5 342.5 186.5C334.493 186.5 328 192.993 328 201Z" fill="#3B2675"/>
<path d="M314.5 149C334.524 149 353.728 141.151 367.887 127.179C382.046 113.208 390 94.2586 390 74.5C390 54.7414 382.046 35.792 367.887 21.8205C353.728 7.84909 334.524 5.58531e-07 314.5 -3.30021e-06L314.5 74.5L314.5 149Z" fill="#FFB800"/>
<path d="M120 269.5L20 269.5L120 172L218.5 172L120 269.5Z" fill="#DDFE2C"/>
</svg>
