<svg width="527" height="177" viewBox="0 0 527 177" fill="none" xmlns="http://www.w3.org/2000/svg">
<path d="M222 32.8496L230.727 103.311L302.181 94.4617L222 32.8496Z" fill="#3B2675"/>
<path d="M378 117L330 69L282 117L330 165L378 117Z" fill="#6F16E0"/>
<path d="M315 117.5C315 125.507 321.493 132 329.5 132C337.507 132 344 125.507 344 117.5C344 109.493 337.507 103 329.5 103C321.493 103 315 109.493 315 117.5Z" fill="#3B2675"/>
<path d="M378 75.5C378 95.5238 385.849 114.728 399.821 128.887C413.792 143.046 432.741 151 452.5 151C472.259 151 491.208 143.046 505.179 128.887C519.151 114.728 527 95.5239 527 75.5L452.5 75.5L378 75.5Z" fill="#FFB800"/>
<path d="M100 176.5L0 176.5L100 79L198.5 79L100 176.5Z" fill="#DDFE2C"/>
</svg>
