<svg width="567" height="453" viewBox="0 0 567 453" fill="none" xmlns="http://www.w3.org/2000/svg">
<path d="M423.005 105.149C381.618 105.149 348.071 71.6016 348.071 30.2148H282.003C282.003 108.093 345.127 171.216 423.005 171.216V105.149Z" fill="#EA9E24"/>
<path d="M423.005 -9.15527e-05V141.001H564.006V-9.15527e-05H423.005Z" fill="#EA9E24"/>
<path d="M566.884 312.218C566.884 234.344 503.756 171.216 425.882 171.216V312.218H566.884Z" fill="#05C4CE"/>
<path d="M423.005 171.216H284.881V312.218L423.005 171.216Z" fill="#3B2675"/>
<path d="M144.599 312.218H288.478L144.599 452.5H2.87756L144.599 312.218Z" fill="#DDFE2C"/>
<path d="M2.87756 30.2148L2.87756 171.216H143.879V30.2148H2.87756Z" fill="#05C4CE"/>
<path d="M214.38 31.6535C195.682 31.6535 177.75 39.0812 164.528 52.3027C151.307 65.5241 143.879 83.4563 143.879 102.154C143.879 120.852 151.307 138.784 164.528 152.006C177.75 165.227 195.682 172.655 214.38 172.655L214.38 102.154L214.38 31.6535Z" fill="#FFB800"/>
<path d="M284.881 241.717C284.881 280.622 252.963 312.218 213.66 312.218L-3.9821e-06 312.218L8.34465e-06 171.216L213.661 171.216C252.963 171.216 284.881 202.812 284.881 241.717Z" fill="#E86023"/>
<path d="M73.146 299.949L131.709 241.29L73.0496 182.727L14.4866 241.386L73.146 299.949Z" fill="#EA9E24"/>
<path d="M88.3302 256.556C96.737 248.135 96.7258 234.502 88.3052 226.095C79.8845 217.688 66.2516 217.7 57.8448 226.12C49.438 234.541 49.4492 248.174 57.8699 256.581C66.2905 264.987 79.9234 264.976 88.3302 256.556Z" fill="#E86023"/>
<path d="M242.324 150.758C241.044 150.758 239.892 150.478 238.868 149.918C237.844 149.342 237.036 148.534 236.444 147.494C235.868 146.454 235.58 145.254 235.58 143.894C235.58 142.534 235.876 141.334 236.468 140.294C237.076 139.254 237.9 138.454 238.94 137.894C239.98 137.318 241.14 137.03 242.42 137.03C243.7 137.03 244.86 137.318 245.9 137.894C246.94 138.454 247.756 139.254 248.348 140.294C248.956 141.334 249.26 142.534 249.26 143.894C249.26 145.254 248.948 146.454 248.324 147.494C247.716 148.534 246.884 149.342 245.828 149.918C244.788 150.478 243.62 150.758 242.324 150.758ZM242.324 147.83C242.932 147.83 243.5 147.686 244.028 147.398C244.572 147.094 245.004 146.646 245.324 146.054C245.644 145.462 245.804 144.742 245.804 143.894C245.804 142.63 245.468 141.662 244.796 140.99C244.14 140.302 243.332 139.958 242.372 139.958C241.412 139.958 240.604 140.302 239.948 140.99C239.308 141.662 238.988 142.63 238.988 143.894C238.988 145.158 239.3 146.134 239.924 146.822C240.564 147.494 241.364 147.83 242.324 147.83ZM259.093 137.054C260.677 137.054 261.957 137.558 262.933 138.566C263.909 139.558 264.397 140.95 264.397 142.742V150.542H261.037V143.198C261.037 142.142 260.773 141.334 260.245 140.774C259.717 140.198 258.997 139.91 258.085 139.91C257.157 139.91 256.421 140.198 255.877 140.774C255.349 141.334 255.085 142.142 255.085 143.198V150.542H251.725V137.246H255.085V138.902C255.533 138.326 256.101 137.878 256.789 137.558C257.493 137.222 258.261 137.054 259.093 137.054Z" fill="white"/>
<path d="M292.101 141.065V149.369H291.009V143.177L288.249 149.369H287.481L284.709 143.165V149.369H283.617V141.065H284.793L287.865 147.929L290.937 141.065H292.101ZM298.585 149.453C297.809 149.453 297.101 149.273 296.461 148.913C295.821 148.545 295.313 148.037 294.937 147.389C294.569 146.733 294.385 145.997 294.385 145.181C294.385 144.365 294.569 143.633 294.937 142.985C295.313 142.329 295.821 141.821 296.461 141.461C297.101 141.093 297.809 140.909 298.585 140.909C299.369 140.909 300.081 141.093 300.721 141.461C301.361 141.821 301.865 142.325 302.233 142.973C302.601 143.621 302.785 144.357 302.785 145.181C302.785 146.005 302.601 146.741 302.233 147.389C301.865 148.037 301.361 148.545 300.721 148.913C300.081 149.273 299.369 149.453 298.585 149.453ZM298.585 148.505C299.169 148.505 299.693 148.369 300.157 148.097C300.629 147.825 300.997 147.437 301.261 146.933C301.533 146.429 301.669 145.845 301.669 145.181C301.669 144.509 301.533 143.925 301.261 143.429C300.997 142.925 300.633 142.537 300.169 142.265C299.705 141.993 299.177 141.857 298.585 141.857C297.993 141.857 297.465 141.993 297.001 142.265C296.537 142.537 296.169 142.925 295.897 143.429C295.633 143.925 295.501 144.509 295.501 145.181C295.501 145.845 295.633 146.429 295.897 146.933C296.169 147.437 296.537 147.825 297.001 148.097C297.473 148.369 298.001 148.505 298.585 148.505ZM311.979 141.005L308.823 149.369H307.563L304.407 141.005H305.571L308.199 148.217L310.827 141.005H311.979ZM315.108 141.005V149.369H314.016V141.005H315.108ZM318.901 141.893V144.689H321.949V145.589H318.901V148.469H322.309V149.369H317.809V140.993H322.309V141.893H318.901Z" fill="white"/>
</svg>
