<svg width="200" height="177" viewBox="0 0 200 177" fill="none" xmlns="http://www.w3.org/2000/svg">
<path d="M83.0583 81.9515C111.447 94.6198 124.19 127.9 111.522 156.289L156.84 176.512C180.678 123.092 156.701 60.4711 103.281 36.633L83.0583 81.9515Z" fill="#FF9700"/>
<path d="M85.1429 0.342807L0.868164 7.79749L8.32284 92.0722L92.5976 84.6176L85.1429 0.342807Z" fill="#6B15D7"/>
<path d="M51.4669 123.548C51.0459 124.405 50.0135 124.753 49.1621 124.335C48.3107 123.917 47.9572 122.881 48.3753 122.03C48.7933 121.179 49.8286 120.825 50.68 121.243C51.5314 121.661 51.8849 122.697 51.4669 123.548Z" fill="#0B1347"/>
<path d="M71.037 133.157C70.6178 134.01 70.9701 135.042 71.8238 135.461C72.6775 135.881 73.7094 135.528 74.1286 134.675C74.5478 133.821 74.1955 132.789 73.3418 132.37C72.488 131.951 71.4562 132.303 71.037 133.157Z" fill="#0B1347"/>
<path d="M24.8561 110.482C24.4369 111.336 24.7892 112.368 25.6429 112.787C26.4966 113.206 27.5285 112.854 27.9477 112C28.3669 111.147 28.0146 110.115 27.1609 109.695C26.3071 109.276 25.2753 109.629 24.8561 110.482Z" fill="#0B1347"/>
<path d="M41.1436 144.573C40.7226 145.431 39.6902 145.778 38.8388 145.36C37.9874 144.942 37.634 143.907 38.052 143.055C38.47 142.204 39.5054 141.85 40.3568 142.268C41.2082 142.687 41.5616 143.722 41.1436 144.573Z" fill="#0B1347"/>
<path d="M63.8052 155.7C63.3842 156.557 62.3518 156.905 61.5004 156.487C60.649 156.069 60.2956 155.033 60.7136 154.182C61.1317 153.331 62.167 152.977 63.0184 153.395C63.8698 153.813 64.2233 154.849 63.8052 155.7Z" fill="#0B1347"/>
<path d="M17.6304 133.028C17.2094 133.886 16.177 134.233 15.3256 133.815C14.4742 133.397 14.1208 132.362 14.5388 131.511C14.9568 130.659 15.9922 130.306 16.8436 130.724C17.695 131.142 18.0484 132.177 17.6304 133.028Z" fill="#0B1347"/>
<path d="M61.8376 102.426C61.4166 103.283 60.3842 103.631 59.5328 103.213C58.6814 102.795 58.3279 101.759 58.746 100.908C59.164 100.057 60.1994 99.7032 61.0508 100.121C61.9022 100.539 62.2556 101.575 61.8376 102.426Z" fill="#0B1347"/>
<path d="M81.4077 112.035C80.9886 112.889 81.3408 113.92 82.1945 114.34C83.0483 114.759 84.0802 114.406 84.4993 113.553C84.9185 112.699 84.5662 111.667 83.7125 111.248C82.8588 110.829 81.8269 111.181 81.4077 112.035Z" fill="#0B1347"/>
<path d="M35.2268 89.3604C34.8076 90.2141 35.1599 91.246 36.0136 91.6651C36.8674 92.0843 37.8992 91.732 38.3184 90.8783C38.7376 90.0246 38.3853 88.9927 37.5316 88.5735C36.6779 88.1544 35.646 88.5066 35.2268 89.3604Z" fill="#0B1347"/>
</svg>
