<svg width="493" height="335" viewBox="0 0 493 335" fill="none" xmlns="http://www.w3.org/2000/svg">
<path d="M373 203.836C337.191 203.836 308.164 174.809 308.164 139H251C251 206.383 305.617 261 373 261V203.836Z" fill="#EA9E24"/>
<path d="M-3.19983e-06 202.696C35.8094 202.696 64.8357 231.484 64.8357 267L122 267C122 200.169 67.383 146 1.75667e-06 146L-3.19983e-06 202.696Z" fill="#EA9E24"/>
<path d="M388.643 98.5229L322.876 66.2317L290.584 131.999L356.352 164.29L388.643 98.5229Z" fill="#EA9E24"/>
<path d="M341.418 116.416C341.054 117.159 340.16 117.46 339.422 117.098C338.685 116.736 338.379 115.839 338.741 115.102C339.103 114.364 340 114.058 340.737 114.42C341.474 114.782 341.78 115.679 341.418 116.416Z" fill="#0B1347"/>
<path d="M358.366 124.737C358.003 125.477 358.308 126.37 359.047 126.733C359.787 127.096 360.68 126.791 361.043 126.052C361.406 125.313 361.101 124.419 360.362 124.056C359.623 123.693 358.729 123.998 358.366 124.737Z" fill="#0B1347"/>
<path d="M318.373 105.102C318.01 105.841 318.315 106.734 319.055 107.097C319.794 107.46 320.688 107.155 321.051 106.416C321.414 105.677 321.109 104.783 320.369 104.42C319.63 104.057 318.736 104.362 318.373 105.102Z" fill="#0B1347"/>
<path d="M332.478 134.624C332.114 135.367 331.22 135.668 330.482 135.306C329.745 134.944 329.439 134.047 329.801 133.31C330.163 132.572 331.06 132.266 331.797 132.628C332.534 132.99 332.84 133.887 332.478 134.624Z" fill="#0B1347"/>
<path d="M352.103 144.26C351.739 145.003 350.845 145.304 350.107 144.942C349.37 144.58 349.064 143.683 349.426 142.946C349.788 142.208 350.685 141.902 351.422 142.264C352.159 142.626 352.465 143.523 352.103 144.26Z" fill="#0B1347"/>
<path d="M312.116 124.627C311.751 125.369 310.857 125.67 310.12 125.308C309.383 124.946 309.077 124.049 309.439 123.312C309.801 122.575 310.697 122.269 311.435 122.631C312.172 122.993 312.478 123.889 312.116 124.627Z" fill="#0B1347"/>
<path d="M350.399 98.1248C350.035 98.8673 349.141 99.1682 348.403 98.8062C347.666 98.4442 347.36 97.5476 347.722 96.8102C348.084 96.0729 348.981 95.7668 349.718 96.1289C350.455 96.4909 350.761 97.3875 350.399 98.1248Z" fill="#0B1347"/>
<path d="M367.347 106.446C366.984 107.185 367.289 108.079 368.028 108.442C368.768 108.805 369.661 108.5 370.024 107.76C370.387 107.021 370.082 106.127 369.343 105.764C368.604 105.401 367.71 105.707 367.347 106.446Z" fill="#0B1347"/>
<path d="M327.354 86.8099C326.991 87.5492 327.296 88.4428 328.036 88.8058C328.775 89.1688 329.669 88.8638 330.032 88.1244C330.395 87.3851 330.09 86.4915 329.35 86.1285C328.611 85.7655 327.717 86.0706 327.354 86.8099Z" fill="#0B1347"/>
<path d="M129 215L248 215L248 94L129 215Z" fill="#3B2675"/>
<path d="M493 308L493 186L371 186L371 308L493 308Z" fill="#05C4CE"/>
<path d="M414 250C414 259.939 422.061 268 432 268C441.939 268 450 259.939 450 250C450 240.061 441.939 232 432 232C422.061 232 414 240.061 414 250Z" fill="#3B2675"/>
<path d="M397 185C421.93 185 445.84 175.255 463.468 157.907C481.096 140.56 491 117.033 491 92.5C491 67.9675 481.096 44.4397 463.468 27.0926C445.84 9.74551 421.93 6.8518e-07 397 -4.10887e-06L397 92.5L397 185Z" fill="#FFB800"/>
<path d="M155.433 335L31 335L155.433 214L278 214L155.433 335Z" fill="#DDFE2C"/>
</svg>
