<svg width="73" height="36" viewBox="0 0 73 36" fill="none" xmlns="http://www.w3.org/2000/svg">
<path d="M14.9101 19.352C14.9101 15.152 11.9101 12.488 8.07006 12.488C4.23006 12.488 1.23006 15.152 1.23006 19.352C1.23006 23.528 4.13406 26.216 7.97406 26.216C11.8381 26.216 14.9101 23.528 14.9101 19.352ZM4.63806 19.352C4.63806 16.688 6.24606 15.416 8.02206 15.416C9.79806 15.416 11.4541 16.688 11.4541 19.352C11.4541 21.992 9.75006 23.288 7.97406 23.288C6.17406 23.288 4.63806 21.992 4.63806 19.352ZM26.6868 26H30.0468V18.2C30.0468 14.528 27.8387 12.512 24.7428 12.512C23.0388 12.512 21.5988 13.232 20.7348 14.36V12.704H17.3748V26H20.7348V18.656C20.7348 16.52 21.9108 15.368 23.7348 15.368C25.5108 15.368 26.6868 16.52 26.6868 18.656V26Z" fill="white"/>
<path d="M41.7358 15.696V24H40.6438V17.808L37.8838 24H37.1158L34.3438 17.796V24H33.2518V15.696H34.4278L37.4998 22.56L40.5718 15.696H41.7358ZM48.2197 24.084C47.4437 24.084 46.7357 23.904 46.0957 23.544C45.4557 23.176 44.9477 22.668 44.5717 22.02C44.2037 21.364 44.0197 20.628 44.0197 19.812C44.0197 18.996 44.2037 18.264 44.5717 17.616C44.9477 16.96 45.4557 16.452 46.0957 16.092C46.7357 15.724 47.4437 15.54 48.2197 15.54C49.0038 15.54 49.7158 15.724 50.3558 16.092C50.9958 16.452 51.4998 16.956 51.8678 17.604C52.2358 18.252 52.4198 18.988 52.4198 19.812C52.4198 20.636 52.2358 21.372 51.8678 22.02C51.4998 22.668 50.9958 23.176 50.3558 23.544C49.7158 23.904 49.0038 24.084 48.2197 24.084ZM48.2197 23.136C48.8038 23.136 49.3278 23 49.7918 22.728C50.2638 22.456 50.6318 22.068 50.8958 21.564C51.1678 21.06 51.3038 20.476 51.3038 19.812C51.3038 19.14 51.1678 18.556 50.8958 18.06C50.6318 17.556 50.2678 17.168 49.8038 16.896C49.3398 16.624 48.8117 16.488 48.2197 16.488C47.6277 16.488 47.0997 16.624 46.6357 16.896C46.1717 17.168 45.8037 17.556 45.5318 18.06C45.2677 18.556 45.1357 19.14 45.1357 19.812C45.1357 20.476 45.2677 21.06 45.5318 21.564C45.8037 22.068 46.1717 22.456 46.6357 22.728C47.1078 23 47.6358 23.136 48.2197 23.136ZM61.6133 15.636L58.4573 24H57.1973L54.0413 15.636H55.2053L57.8333 22.848L60.4613 15.636H61.6133ZM64.7427 15.636V24H63.6507V15.636H64.7427ZM68.5358 16.524V19.32H71.5838V20.22H68.5358V23.1H71.9438V24H67.4438V15.624H71.9438V16.524H68.5358Z" fill="white"/>
</svg>
